<?xml version="1.0" standalone="no"?>
<!DOCTYPE svg PUBLIC "-//W3C//DTD SVG 20010904//EN"
 "http://www.w3.org/TR/2001/REC-SVG-20010904/DTD/svg10.dtd">
<svg version="1.0" xmlns="http://www.w3.org/2000/svg"
 width="512.000000pt" height="512.000000pt" viewBox="0 0 512.000000 512.000000"
 preserveAspectRatio="xMidYMid meet">
<metadata>
Created by potrace 1.16, written by Peter Selinger 2001-2019
</metadata>
<g transform="translate(0.000000,512.000000) scale(0.100000,-0.100000)"
fill="#000000" stroke="none">
<path d="M1875 4591 c-17 -10 -44 -33 -60 -52 -62 -74 -153 -306 -170 -434
-10 -79 -15 -95 -26 -92 -8 1 -11 -26 -11 -83 0 -70 -2 -76 -7 -35 -6 50 -6
50 -14 16 -4 -18 -7 -46 -7 -62 0 -31 -25 -53 -72 -64 -37 -9 -35 -17 10 -35
l37 -16 -70 -42 c-77 -45 -143 -72 -184 -73 -25 -1 -25 -1 7 -15 18 -8 56 -18
85 -22 l52 -7 -39 -24 c-21 -14 -80 -59 -131 -101 -51 -42 -110 -88 -131 -101
l-39 -24 63 -3 63 -3 -43 -49 c-91 -104 -85 -118 12 -27 81 76 296 225 307
213 3 -2 -25 -41 -61 -85 -36 -45 -66 -84 -66 -87 0 -6 34 0 65 12 11 5 4 -10
-19 -40 -44 -58 -45 -71 -6 -51 42 22 43 20 19 -27 -25 -48 -60 -148 -53 -148
3 0 22 9 44 20 22 11 41 20 44 20 3 0 -6 -25 -20 -56 -29 -67 -54 -164 -54
-217 0 -34 2 -37 19 -27 30 15 30 14 15 -37 -8 -25 -14 -78 -14 -117 l1 -71
18 34 18 34 5 -66 c6 -73 43 -161 98 -236 l32 -44 19 24 19 24 0 -31 c0 -42
45 -170 75 -216 14 -21 26 -38 28 -38 1 0 0 27 -1 60 -3 39 0 60 7 60 6 0 11
-8 11 -18 0 -10 16 -51 36 -92 29 -60 37 -88 38 -140 2 -88 49 -182 133 -270
53 -54 63 -70 63 -100 0 -49 24 -132 56 -197 23 -48 86 -137 211 -298 38 -48
133 -200 133 -211 0 -3 -24 14 -53 39 -52 44 -106 82 -181 127 -34 21 -39 21
-33 6 4 -10 10 -29 13 -43 l7 -25 -52 26 c-28 15 -51 23 -51 18 0 -10 110
-117 191 -184 37 -31 120 -93 185 -139 66 -46 152 -112 192 -147 40 -35 74
-62 76 -60 1 1 32 64 69 138 38 77 111 198 170 282 56 81 107 156 114 165 7
10 -4 -27 -23 -82 -62 -173 -126 -367 -122 -370 2 -2 21 36 42 83 22 48 84
179 138 293 97 203 119 268 117 359 l0 35 -23 -50 c-13 -27 -31 -59 -40 -70
-15 -19 -15 -18 -16 28 0 30 -4 46 -10 42 -5 -3 -10 -15 -10 -26 0 -10 -4 -19
-9 -19 -4 0 -26 -30 -47 -67 -22 -36 -73 -103 -114 -147 -42 -45 -90 -98 -108
-119 -17 -21 -32 -34 -32 -30 0 9 45 91 79 147 13 20 21 36 18 36 -9 0 -135
-198 -155 -245 -12 -27 -21 -42 -22 -33 0 22 -71 110 -184 228 -211 219 -317
379 -340 512 l-7 37 67 -70 c37 -38 69 -67 71 -66 5 6 -41 107 -132 287 -45
91 -88 184 -95 208 -21 67 -24 40 -5 -37 9 -39 37 -104 62 -148 25 -43 59
-103 76 -133 l31 -55 -97 89 c-133 121 -203 199 -232 255 -31 62 -59 200 -53
263 3 29 2 44 -3 36 -14 -21 -10 -151 6 -204 l14 -49 -19 25 c-45 56 -75 134
-78 202 -5 77 8 119 44 143 39 25 133 45 219 45 70 1 77 2 57 13 -12 7 -19 17
-15 22 4 4 -1 5 -12 2 -17 -6 -17 -4 4 13 14 12 18 20 10 20 -11 0 -11 2 1 10
13 8 13 10 -2 10 -10 0 -16 7 -15 19 2 33 41 5 39 -29 0 -3 7 -11 16 -19 13
-13 14 -12 9 11 -4 14 -10 33 -13 41 -3 10 1 17 13 20 15 4 15 5 -3 6 -19 1
-23 10 -34 96 -12 94 -13 95 -32 78 -19 -17 -19 -17 -13 12 12 53 27 100 38
115 6 8 -17 -13 -51 -47 -68 -70 -101 -80 -161 -50 -19 10 -25 9 -37 -7 -7
-10 -15 -24 -17 -30 -3 -8 -10 -7 -25 1 -20 12 -43 0 -28 -14 3 -4 6 -1 6 4 0
7 15 4 37 -7 21 -10 42 -16 47 -13 5 3 7 0 4 -8 -3 -8 -22 -17 -44 -20 -32 -4
-104 -33 -104 -42 0 -1 47 0 104 1 115 4 174 -10 90 -22 -27 -3 -66 -17 -88
-30 l-39 -23 50 -7 c28 -3 79 -21 114 -39 l64 -32 -95 -6 c-52 -4 -112 -14
-132 -22 -49 -21 -48 -14 2 14 22 12 38 24 37 26 -7 6 -83 -20 -100 -35 -22
-19 -32 -10 -18 16 16 30 14 32 -17 23 -47 -14 -89 -39 -111 -67 l-21 -27 0
30 c0 34 29 92 88 177 43 60 59 100 22 53 -11 -14 -39 -40 -62 -58 l-41 -33 7
42 c3 23 3 42 -1 42 -12 0 -50 -63 -67 -111 l-15 -44 -1 42 c-1 109 50 232
132 319 28 29 66 58 85 65 25 8 31 14 22 20 -11 6 -9 12 6 31 11 12 1 6 -22
-14 -23 -21 -64 -48 -90 -62 -27 -13 -71 -42 -98 -65 -27 -22 -51 -39 -53 -37
-8 8 40 103 90 179 39 60 67 89 121 127 39 28 69 50 66 50 -3 0 -41 -15 -84
-33 -92 -39 -149 -73 -207 -125 l-42 -37 33 62 c45 84 111 164 201 242 41 36
77 69 79 74 4 11 -73 -28 -126 -64 -23 -16 -45 -29 -49 -29 -14 0 67 78 161
158 162 136 146 135 -37 -3 -61 -47 -116 -85 -122 -85 -5 0 -23 -12 -39 -27
-35 -33 -33 -28 48 97 103 159 165 209 335 268 85 29 90 32 45 27 -27 -3 -59
-9 -70 -12 -11 -3 45 28 125 69 205 105 341 182 329 187 -6 2 0 15 13 29 20
23 19 23 -17 -5 -38 -29 -97 -63 -110 -63 -3 0 13 19 36 43 22 23 52 57 66 75
24 30 27 32 44 16 17 -15 18 -14 24 20 8 43 -1 111 -19 145 -11 21 -12 17 -8
-33 2 -31 2 -56 0 -56 -3 0 -19 22 -37 50 -18 27 -45 58 -60 70 -28 19 -28 18
15 -66 63 -122 58 -162 -10 -83 -43 51 -56 78 -115 243 -68 192 -120 273 -196
307 -49 23 -71 23 -110 4 l-30 -15 28 25 c32 28 63 31 110 11 48 -21 93 -70
165 -181 78 -121 194 -277 201 -270 2 3 -10 26 -28 51 -17 25 -27 43 -21 39 6
-4 35 -10 63 -15 29 -4 61 -11 71 -15 16 -7 18 -5 13 8 -8 21 -6 21 76 -2 54
-15 67 -16 67 -5 0 19 27 17 79 -6 52 -24 55 -24 47 -5 -7 20 -4 19 54 -15 59
-35 60 -35 60 -15 0 22 11 19 51 -15 35 -28 57 -70 38 -70 -5 0 -9 8 -10 18 0
10 -3 12 -6 5 -7 -19 15 -110 34 -139 14 -22 17 -24 26 -9 5 9 28 25 50 35 23
11 49 25 57 32 15 12 124 134 258 286 35 40 74 75 87 78 30 7 61 -2 69 -22 4
-11 0 -13 -19 -8 -37 9 -82 -24 -157 -118 -37 -46 -99 -114 -138 -152 -78 -75
-94 -97 -104 -138 -5 -20 -1 -32 16 -48 12 -11 25 -20 29 -20 11 0 29 59 29
93 0 25 3 28 23 24 18 -5 28 3 55 46 26 42 29 53 17 55 -9 2 -23 -2 -33 -10
-9 -7 36 40 100 105 130 132 154 143 184 85 14 -26 17 -61 17 -163 1 -115 -3
-139 -26 -207 -25 -72 -25 -78 -10 -108 12 -25 14 -48 9 -103 -12 -126 -19
-132 -65 -54 -33 58 -116 147 -152 164 -24 11 -23 12 8 12 17 1 35 6 39 12 3
6 17 9 29 6 18 -3 24 1 28 19 2 12 1 28 -3 34 -4 7 10 44 32 83 65 119 85 227
44 243 -8 3 -38 -8 -68 -25 -29 -17 -45 -31 -35 -31 24 0 21 -17 -5 -32 l-23
-12 25 -6 25 -6 -35 -23 -35 -22 35 6 c42 8 35 0 -35 -44 -59 -36 -56 -39 10
-10 50 22 72 20 33 -4 -81 -49 -93 -59 -68 -53 85 21 87 20 33 -18 -29 -20
-53 -38 -53 -41 0 -2 15 1 32 6 41 11 48 11 48 0 0 -13 -130 -63 -147 -57 -8
3 -11 1 -8 -4 8 -12 10 -13 -50 5 -27 9 -45 12 -40 7 22 -19 133 -99 175 -126
59 -38 130 -98 125 -105 -2 -4 25 -27 58 -52 35 -26 82 -74 106 -109 l44 -63
-39 27 c-21 14 -39 34 -39 43 0 9 -34 46 -76 82 -48 41 -72 69 -65 73 10 7 -6
12 -26 9 -5 0 -8 3 -8 9 0 5 -10 15 -22 21 -29 16 65 -94 135 -158 29 -25 43
-43 32 -40 -16 6 -15 3 5 -13 83 -68 121 -103 116 -107 -2 -3 -31 11 -63 31
-32 20 -62 36 -66 36 -3 0 22 -28 58 -62 35 -34 61 -66 58 -71 -3 -6 -1 -7 4
-4 14 9 22 -2 69 -88 38 -71 36 -73 -26 -20 -14 12 -43 35 -65 51 l-40 29 35
-45 c19 -24 34 -50 32 -58 -2 -9 1 -11 9 -6 9 5 10 2 6 -10 -4 -9 -3 -15 2
-12 17 11 59 -107 75 -214 l5 -35 -20 37 c-10 21 -26 64 -33 95 -8 32 -15 47
-15 35 -1 -22 -4 -20 -37 20 -20 23 -38 45 -41 48 -8 8 20 -53 39 -85 26 -43
21 -55 -7 -20 -35 42 -31 27 11 -50 41 -74 41 -101 1 -32 -24 40 -57 77 -57
64 0 -3 18 -34 40 -69 21 -35 46 -80 55 -101 l15 -38 -62 33 c-35 18 -67 35
-73 37 -5 2 12 -20 38 -49 45 -50 93 -127 85 -136 -2 -2 -21 8 -43 23 -21 14
-58 32 -82 39 l-45 14 32 -38 c50 -60 51 -62 46 -71 -5 -8 3 -37 33 -134 7
-19 6 -25 -2 -20 -7 4 -8 0 -3 -13 28 -68 46 -127 45 -151 0 -17 -9 2 -20 46
-10 41 -28 88 -39 105 -24 37 -26 23 -4 -29 8 -20 14 -46 12 -57 -3 -20 -3
-20 -28 2 -14 12 -18 18 -11 14 9 -4 6 6 -8 24 -28 40 -48 51 -108 58 -45 6
-47 5 -28 -9 23 -18 26 -16 -67 -41 -72 -20 -68 -21 -68 16 0 17 -5 46 -12 64
-10 28 -9 47 7 111 15 67 23 83 57 114 43 39 58 82 57 159 -1 36 -2 40 -8 20
-23 -73 -67 -116 -100 -95 -7 4 -11 -12 -12 -47 0 -29 -6 -91 -12 -138 l-12
-85 -24 90 c-13 50 -43 144 -66 210 -61 174 -61 177 -19 214 19 17 41 31 50
31 24 0 62 30 85 66 19 31 59 48 59 25 0 -5 11 -12 24 -15 13 -3 37 -21 54
-40 26 -30 31 -46 37 -113 11 -107 12 -282 2 -315 -6 -24 -3 -29 24 -44 31
-15 32 -15 23 2 -5 11 -10 117 -12 238 -2 178 0 222 12 240 14 22 12 24 -37
49 -37 18 -82 29 -155 38 -135 16 -160 6 -191 -76 -12 -31 -21 -63 -21 -73 -1
-16 -1 -16 -10 0 -14 23 6 110 32 144 25 31 111 74 151 74 16 0 38 -5 50 -12
20 -10 21 -10 9 5 -24 29 -69 31 -122 5 -47 -23 -52 -21 -25 12 14 17 50 138
44 145 -3 2 -24 -7 -47 -21 l-42 -25 21 -18 21 -17 -31 -61 c-35 -70 -46 -80
-59 -57 -6 12 -11 -11 -16 -76 -7 -79 -5 -99 12 -143 11 -29 52 -153 92 -277
39 -124 79 -245 87 -269 20 -55 13 -172 -12 -221 -32 -64 -84 -120 -111 -120
-36 0 -96 28 -92 42 3 7 32 22 66 33 96 32 152 99 152 184 0 97 -58 158 -171
177 -85 14 -118 8 -161 -33 -74 -70 -80 -82 -76 -144 6 -80 40 -128 117 -167
55 -27 59 -31 43 -45 -9 -8 -52 -23 -96 -32 -107 -24 -214 -17 -281 17 -46 24
-201 156 -192 164 2 2 36 -4 76 -14 39 -10 68 -15 63 -10 -4 4 -39 15 -77 24
-98 22 -112 29 -130 64 l-16 31 28 -6 c23 -4 24 -4 8 4 -29 14 -75 13 -75 -1
0 -7 9 -27 19 -44 19 -31 19 -32 -2 -32 -29 0 -148 -31 -167 -44 -12 -7 -10
-8 5 -3 11 4 53 14 93 23 l72 16 38 -35 c20 -19 93 -72 162 -117 136 -89 144
-91 344 -116 82 -10 110 -10 137 0 19 7 43 13 54 13 16 1 13 -5 -17 -36 -85
-85 -270 -59 -431 60 -78 58 -157 103 -157 90 0 -5 -5 0 -10 9 -6 9 -35 26
-66 37 -46 18 -62 19 -92 11 -39 -11 -68 -31 -92 -65 -8 -11 2 -6 22 12 20 17
50 34 66 38 33 7 92 -7 132 -30 l25 -14 -28 -1 c-15 0 -42 -6 -60 -14 -39 -16
-118 -99 -136 -143 -14 -35 -12 -40 109 -204 59 -79 138 -225 160 -294 7 -22
15 -34 18 -27 4 12 -12 108 -24 151 -11 36 31 -48 48 -98 25 -71 38 -143 39
-216 1 -51 3 -57 14 -41 7 9 21 48 30 86 26 104 8 196 -69 360 -40 85 -32 198
17 238 13 12 15 8 10 -27 -5 -40 12 -127 27 -136 4 -3 7 13 6 35 -1 47 42 114
92 143 39 23 46 19 32 -18 -15 -38 21 -113 91 -190 30 -33 65 -73 77 -89 12
-16 22 -22 22 -14 0 14 -25 55 -89 144 -43 59 -57 144 -24 144 18 0 19 -6 15
-53 -3 -45 -1 -55 19 -72 22 -20 22 -20 14 0 -14 36 -17 64 -11 90 5 21 12 25
45 25 l38 0 21 -67 c45 -144 37 -225 -33 -366 -25 -48 -43 -87 -41 -87 12 0
99 144 111 185 20 66 19 175 -4 261 l-18 71 30 11 c39 15 44 8 53 -75 6 -57
-6 -179 -21 -229 -6 -16 -5 -17 4 -3 16 25 41 139 41 190 0 25 -7 68 -15 95
l-14 48 88 91 c48 49 93 99 98 109 10 19 12 19 37 3 29 -19 31 -37 15 -104
l-12 -45 -13 37 c-7 21 -18 43 -25 49 -9 8 -10 7 -3 -9 13 -30 8 -115 -9 -155
l-15 -35 -2 65 c-2 64 -2 65 -12 25 -5 -22 -25 -101 -43 -175 -19 -74 -33
-136 -31 -137 2 -2 19 23 38 54 19 32 53 87 75 123 44 72 78 152 92 218 5 24
11 46 14 48 2 2 26 -12 53 -32 l49 -36 -51 49 c-27 26 -68 57 -90 68 -21 11
-41 21 -44 23 -3 2 4 10 14 18 11 8 15 14 8 14 -6 0 -9 7 -5 16 4 12 15 14 47
10 l41 -5 -42 11 c-51 13 -56 34 -12 43 20 5 27 10 20 15 -14 8 44 20 102 20
44 0 96 -20 116 -44 14 -16 12 -17 -22 -11 -41 8 -44 5 -22 -28 19 -30 48
-156 39 -176 -5 -14 -7 -13 -14 4 -5 12 -7 -6 -4 -45 l4 -65 -19 54 c-10 29
-26 60 -35 69 -14 15 -15 13 -7 -15 5 -17 11 -80 15 -139 4 -77 3 -96 -4 -67
-5 23 -18 61 -30 85 -11 24 -18 35 -15 25 11 -40 16 -235 7 -272 l-10 -40 -1
37 c-1 54 -15 54 -31 0 l-13 -47 -11 45 -11 45 -3 -69 c-2 -39 -9 -78 -17 -89
-19 -27 -22 -16 -29 111 -8 159 -21 147 -22 -21 0 -134 -3 -158 -23 -207 l-22
-54 22 19 c12 11 35 40 51 64 15 25 28 40 28 33 0 -41 72 23 110 98 25 50 50
151 50 210 0 25 5 52 10 60 7 11 10 4 10 -27 0 -60 15 -61 39 0 35 89 44 144
38 233 l-5 85 23 -15 c21 -14 22 -13 33 36 16 68 15 202 -3 268 -8 30 -12 56
-10 59 10 9 45 -33 62 -75 10 -24 21 -44 26 -44 4 0 7 43 7 96 0 98 -26 205
-66 272 -13 21 -11 20 11 -6 15 -18 44 -41 64 -52 l38 -19 -5 27 c-5 31 -58
229 -66 252 -5 12 3 14 44 12 l50 -4 -31 49 c-101 158 -138 225 -121 218 9 -4
24 -10 32 -13 28 -11 -101 188 -153 237 -25 22 -25 25 -12 52 19 35 19 160 1
212 -12 33 -12 45 5 99 45 144 62 338 38 447 -13 63 -55 111 -96 111 -34 0
-72 -23 -178 -105 -76 -60 -271 -190 -300 -201 -7 -3 -48 17 -90 45 -42 28
-78 51 -81 51 -2 0 -4 -7 -4 -16 0 -8 4 -13 9 -10 5 3 15 -2 22 -11 12 -14 12
-16 -1 -8 -8 5 -22 10 -31 10 -9 1 -47 20 -84 43 l-67 42 22 -35 22 -35 -52
20 c-28 11 -65 27 -81 35 -35 18 -37 10 -6 -23 l22 -25 -30 7 c-16 4 -58 20
-93 36 -61 28 -67 26 -33 -14 15 -18 14 -18 -29 -11 -25 4 -57 14 -72 21 -19
10 -27 11 -30 2 -2 -6 -44 49 -92 123 -101 153 -126 183 -178 210 -47 24 -85
24 -123 0z m135 -201 c59 -30 106 -76 124 -120 8 -21 25 -85 37 -142 21 -101
22 -184 3 -275 l-6 -33 -34 29 c-18 16 -61 43 -96 60 -62 29 -117 75 -106 87
9 8 68 -24 112 -62 74 -63 51 -23 -27 48 -42 38 -77 74 -77 79 0 15 31 -5 88
-56 29 -26 52 -44 52 -40 0 4 -34 43 -75 88 -41 45 -75 86 -75 90 0 9 65 -38
112 -82 15 -13 30 -22 33 -19 3 3 -28 36 -70 74 -42 37 -83 80 -91 95 l-14 27
47 0 c57 0 90 -12 126 -46 15 -14 27 -20 27 -13 0 7 -26 37 -57 67 -59 54 -61
66 -9 39 29 -16 30 -15 12 4 -10 10 -30 22 -44 26 -37 9 -103 55 -96 67 6 9
41 26 57 27 4 1 25 -8 47 -19z m-216 -105 c-37 -99 -43 -205 -16 -270 11 -28
23 -81 25 -119 3 -47 10 -73 22 -85 19 -18 19 -24 -1 97 l-7 37 22 -27 c18
-22 23 -43 25 -100 l2 -73 -59 -73 c-56 -69 -61 -73 -96 -70 -34 3 -36 5 -34
38 1 19 -7 61 -18 92 -10 32 -19 67 -19 79 0 18 2 19 15 9 13 -11 15 -3 15 63
0 88 15 207 36 292 16 62 54 158 60 152 2 -2 -7 -41 -21 -88 -16 -55 -24 -106
-23 -149 l1 -65 7 70 c9 89 36 191 62 233 11 18 22 32 24 30 2 -2 -8 -35 -22
-73z m-177 -487 c-3 -7 -5 -2 -5 12 0 14 2 19 5 13 2 -7 2 -19 0 -25z m5 -50
c-8 -8 -9 -4 -5 13 4 13 8 18 11 10 2 -7 -1 -18 -6 -23z m28 -62 c0 -6 -7 -2
-15 8 -8 11 -15 25 -15 30 0 6 7 2 15 -8 8 -11 15 -25 15 -30z m-111 -42 c-30
-29 -46 -37 -85 -41 l-49 -4 79 41 c44 22 82 40 85 40 3 0 -11 -16 -30 -36z
m-19 -104 c-45 -57 -94 -95 -180 -139 -71 -37 -157 -65 -135 -44 73 69 305
223 337 223 5 0 -5 -18 -22 -40z m1670 -382 c0 -29 -28 -58 -56 -58 -27 0 -47
29 -33 51 6 10 9 10 9 2 0 -22 48 -15 55 7 8 27 25 26 25 -2z m454 -471 c8
-18 17 -45 21 -62 3 -19 -2 -12 -15 19 -12 27 -31 63 -42 80 l-22 31 21 -18
c12 -11 28 -33 37 -50z m-70 -151 c22 -67 19 -94 -3 -31 -29 81 -34 101 -23
90 5 -5 17 -32 26 -59z m-480 -16 c21 -5 48 -18 60 -31 l21 -21 -25 5 c-14 4
-63 9 -110 12 -110 9 -124 14 -80 30 42 16 82 18 134 5z m64 -109 c12 -6 27
-21 33 -32 8 -16 8 -20 0 -14 -7 3 -55 11 -108 16 -53 5 -101 13 -107 19 -7 7
0 10 20 10 16 1 40 7 53 14 25 14 68 9 109 -13z m269 -7 c-3 -3 -12 -4 -19 -1
-8 3 -5 6 6 6 11 1 17 -2 13 -5z m-440 -129 c-7 -18 -82 -21 -93 -4 -4 8 3 9
22 5 19 -4 37 -1 49 8 23 16 30 14 22 -9z m147 10 c-4 -9 0 -15 7 -15 9 0 7
-4 -4 -11 -10 -6 -21 -9 -24 -6 -7 8 7 47 17 47 5 0 7 -7 4 -15z m402 -71 c8
-18 13 -50 13 -71 l-1 -38 -8 46 c-4 25 -15 61 -25 79 -9 18 -11 29 -5 25 7
-4 18 -22 26 -41z m-1106 -165 c-21 -37 -6 -162 29 -258 17 -47 29 -86 28 -88
-5 -4 -61 75 -81 115 -23 44 -38 129 -30 170 4 18 18 47 31 63 29 34 41 32 23
-2z"/>
<path d="M2020 4160 c41 -38 80 -69 85 -69 6 0 -24 31 -65 69 -41 39 -79 70
-85 70 -5 -1 24 -32 65 -70z"/>
<path d="M2605 4052 c58 -90 84 -151 141 -316 26 -76 40 -132 34 -134 -7 -3
-6 -10 1 -23 12 -23 59 -224 59 -253 0 -10 -16 12 -34 50 -38 75 -93 143 -171
214 -54 49 -55 49 60 -90 123 -149 146 -219 103 -310 -24 -51 -26 -66 -16 -96
3 -12 3 -26 0 -31 -4 -5 5 5 20 21 54 59 61 88 54 220 -5 82 -4 118 3 111 6
-6 15 -82 20 -170 9 -150 28 -291 38 -282 2 3 0 33 -6 68 -20 131 -21 138 -5
132 8 -3 14 -11 14 -17 0 -23 22 -35 46 -26 18 7 24 5 28 -8 3 -9 4 2 2 25 -3
26 -17 61 -40 96 -22 32 -36 66 -36 85 0 50 39 137 92 202 27 34 41 57 31 51
-25 -13 -85 -78 -117 -126 l-26 -40 0 95 c0 65 6 117 20 165 24 85 25 100 2
59 -9 -17 -29 -46 -44 -65 -14 -19 -35 -56 -46 -83 l-19 -49 -6 86 c-11 153
-95 347 -199 460 l-48 52 45 -73z"/>
<path d="M2810 4021 c0 -29 37 -76 68 -88 18 -6 33 -8 35 -5 2 4 -20 30 -50
58 -33 31 -53 44 -53 35z"/>
<path d="M2730 4004 c0 -11 38 -74 45 -74 2 0 -5 17 -17 38 -27 46 -28 48 -28
36z"/>
<path d="M2601 3995 c1 -19 18 -51 18 -35 0 8 -4 22 -9 30 -5 8 -9 11 -9 5z"/>
<path d="M2609 3802 c12 -17 31 -36 41 -42 10 -5 36 -33 59 -61 23 -28 41 -45
41 -38 0 8 -37 50 -82 94 -44 44 -71 65 -59 47z"/>
<path d="M2038 3623 c7 -3 16 -2 19 1 4 3 -2 6 -13 5 -11 0 -14 -3 -6 -6z"/>
<path d="M2525 3607 c16 -12 56 -47 89 -77 52 -49 57 -51 40 -22 -20 36 -55
65 -119 100 l-40 22 30 -23z"/>
<path d="M2465 3476 c46 -22 120 -95 167 -164 15 -23 15 -29 2 -54 -14 -26
-13 -28 9 -33 13 -4 32 -22 42 -41 16 -31 20 -33 29 -17 19 34 26 103 15 152
-11 53 -57 115 -112 152 -20 13 -12 3 20 -27 28 -27 59 -63 67 -81 18 -37 23
-171 5 -140 -5 9 -7 22 -4 27 3 6 1 10 -5 10 -6 0 -8 4 -5 10 3 5 0 8 -7 5 -8
-3 -26 16 -45 48 -38 63 -120 142 -168 163 -56 23 -64 16 -10 -10z"/>
<path d="M2119 3466 c-31 -6 -65 -20 -75 -31 -19 -19 -19 -19 1 -11 29 11 158
35 245 45 l75 8 -95 1 c-52 0 -120 -5 -151 -12z"/>
<path d="M3050 3436 c-27 -30 -37 -82 -29 -151 5 -46 6 -43 7 26 2 63 6 83 27
113 29 42 27 45 -5 12z"/>
<path d="M3270 3410 c8 -5 22 -10 30 -10 13 0 13 1 0 10 -8 5 -22 10 -30 10
-13 0 -13 -1 0 -10z"/>
<path d="M3320 3396 c0 -3 9 -10 20 -16 11 -6 20 -8 20 -6 0 3 -9 10 -20 16
-11 6 -20 8 -20 6z"/>
<path d="M2460 3374 c0 -4 12 -20 26 -35 15 -16 28 -43 30 -62 l4 -35 -37 19
c-41 21 -95 24 -162 8 -59 -13 -64 -4 -10 21 58 26 29 25 -57 -1 -56 -17 -74
-19 -104 -10 -29 8 -44 8 -66 -2 -86 -40 -82 -38 -47 -31 19 3 34 1 39 -7 5
-8 3 -9 -6 -4 -9 6 -12 4 -8 -7 4 -10 0 -14 -16 -14 -12 1 -20 -4 -18 -12 1
-6 -4 -11 -10 -10 -7 2 -11 -4 -10 -12 2 -8 1 -12 -3 -8 -4 4 -36 -18 -71 -47
-35 -30 -82 -67 -105 -82 -23 -15 -36 -29 -29 -31 7 -3 0 -13 -17 -24 -27 -20
-27 -20 -3 -14 14 3 30 6 37 6 6 0 27 14 45 30 18 17 36 30 40 30 4 0 10 11
14 25 3 14 10 25 14 25 4 0 10 9 13 21 3 12 10 18 17 14 6 -3 9 -1 8 6 -4 15
43 20 60 7 20 -17 15 -25 -53 -98 -36 -38 -65 -72 -65 -76 0 -3 30 25 66 64
36 39 82 85 103 101 l38 30 -21 -42 c-15 -30 -22 -66 -24 -129 -3 -76 -1 -91
17 -116 31 -45 69 -56 164 -49 60 5 83 11 90 23 6 11 12 13 16 6 4 -6 16 18
26 53 l20 63 -27 -14 c-37 -19 -62 -18 -108 6 -48 25 -83 74 -111 157 -11 35
-25 63 -31 63 -22 0 26 40 57 49 50 14 83 2 118 -41 39 -48 63 -62 142 -78 73
-15 125 -60 125 -109 0 -27 4 -31 26 -31 26 0 26 2 21 43 -4 23 -20 76 -36
117 -34 83 -40 125 -17 117 22 -9 -9 75 -37 101 -24 21 -67 38 -67 26z m-20
-134 c0 -5 -4 -10 -10 -10 -5 0 -10 5 -10 10 0 6 5 10 10 10 6 0 10 -4 10 -10z
m-50 -18 c0 -41 51 -57 70 -22 13 24 30 26 30 5 0 -25 -38 -55 -69 -55 -20 0
-36 9 -50 26 -27 34 -27 64 -1 64 13 0 20 -7 20 -18z"/>
<path d="M2291 3356 c8 -7 41 -18 74 -25 32 -6 77 -21 100 -32 l40 -21 -19 21
c-22 25 -114 60 -169 66 -34 3 -38 2 -26 -9z"/>
<path d="M1809 3303 c-13 -17 -13 -17 6 -3 11 8 22 16 24 17 2 2 0 3 -6 3 -6
0 -17 -8 -24 -17z"/>
<path d="M3595 3220 c10 -11 20 -20 22 -20 2 0 -2 9 -9 20 -7 11 -17 20 -22
20 -5 0 -1 -9 9 -20z"/>
<path d="M1284 3211 c-23 -10 -86 -51 -140 -91 -54 -40 -120 -83 -147 -95
l-47 -22 37 -6 c21 -4 48 -4 61 -1 39 11 24 -12 -58 -89 -75 -71 -183 -147
-209 -147 -6 0 -11 -4 -11 -9 0 -12 62 -21 148 -21 43 0 72 -4 72 -10 0 -6
-12 -34 -26 -63 -87 -171 -265 -339 -412 -389 l-57 -19 120 5 c66 3 135 10
154 15 19 6 37 9 39 6 6 -6 -142 -287 -187 -355 -20 -30 -40 -62 -45 -70 -5
-8 6 -3 25 12 l35 26 68 -59 c89 -78 192 -156 356 -269 74 -51 155 -109 180
-129 l45 -36 -52 65 c-208 258 -283 426 -283 637 0 124 20 221 66 322 19 41
32 76 30 79 -3 2 -20 -5 -39 -17 -32 -19 -172 -81 -185 -81 -3 0 14 17 39 37
90 76 183 189 239 288 l23 40 -47 -50 -46 -50 31 55 c30 53 44 72 106 150 l28
35 -30 -21 c-72 -51 -236 -117 -251 -101 -2 2 15 17 39 34 23 17 85 73 138
125 91 91 94 95 60 87 -20 -4 -37 -7 -38 -5 -2 2 32 32 74 69 74 62 152 137
142 137 -2 0 -22 -9 -45 -19z"/>
<path d="M2217 3218 c62 -102 120 -158 163 -158 8 0 -3 9 -26 20 -26 13 -57
43 -88 85 -26 36 -50 65 -52 65 -3 0 -2 -6 3 -12z"/>
<path d="M1740 3181 c-40 -22 -133 -101 -126 -108 5 -5 152 102 162 118 7 12
5 11 -36 -10z"/>
<path d="M1353 3088 c-31 -32 -157 -283 -193 -383 -10 -27 -33 -111 -52 -185
-30 -125 -33 -147 -33 -295 0 -183 15 -249 86 -385 43 -83 84 -140 75 -105 -3
11 -17 75 -32 143 -23 108 -25 141 -22 268 1 79 0 137 -4 127 -4 -10 -17 -46
-29 -81 -12 -34 -23 -61 -24 -60 -7 7 16 178 29 223 9 27 14 51 12 52 -2 2
-13 -11 -25 -29 -26 -42 -26 -37 4 82 27 107 57 184 83 214 16 18 16 19 0 13
-10 -4 -18 -2 -18 4 0 24 73 167 111 217 22 29 39 55 37 58 -2 2 -21 -8 -42
-22 l-37 -25 30 58 c17 32 42 77 56 101 14 23 25 42 23 42 -2 0 -18 -15 -35
-32z"/>
<path d="M3321 3048 c-29 -67 -59 -89 -132 -95 l-62 -6 31 -29 c55 -48 108
-35 143 35 22 42 51 137 43 137 -3 0 -13 -19 -23 -42z"/>
<path d="M3611 3054 c0 -11 3 -14 6 -6 3 7 2 16 -1 19 -3 4 -6 -2 -5 -13z"/>
<path d="M2480 3006 c0 -2 8 -10 18 -17 15 -13 16 -12 3 4 -13 16 -21 21 -21
13z"/>
<path d="M1641 2928 c-13 -24 -33 -58 -44 -77 -14 -23 -16 -32 -7 -29 17 5 83
124 78 139 -2 6 -14 -9 -27 -33z"/>
<path d="M2810 2946 c0 -2 22 -18 50 -36 50 -32 61 -50 129 -200 l11 -25 -6
25 c-13 55 -69 163 -97 186 -30 25 -87 58 -87 50z"/>
<path d="M3352 2930 c0 -14 2 -19 5 -12 2 6 2 18 0 25 -3 6 -5 1 -5 -13z"/>
<path d="M1866 2885 c-9 -26 -7 -32 5 -12 6 10 9 21 6 23 -2 3 -7 -2 -11 -11z"/>
<path d="M2665 2856 c10 -14 19 -26 22 -26 7 0 -17 39 -28 46 -6 3 -3 -5 6
-20z"/>
<path d="M3141 2865 c0 -5 9 -44 20 -85 10 -41 17 -57 14 -35 -5 40 -33 139
-34 120z"/>
<path d="M1862 2790 c0 -14 2 -19 5 -12 2 6 2 18 0 25 -3 6 -5 1 -5 -13z"/>
<path d="M2330 2781 c0 -6 4 -12 8 -15 5 -3 9 1 9 9 0 8 -4 15 -9 15 -4 0 -8
-4 -8 -9z"/>
<path d="M1621 2710 c-42 -65 -52 -92 -26 -70 20 17 78 120 72 127 -3 3 -24
-23 -46 -57z"/>
<path d="M3001 2675 c1 -19 18 -51 18 -35 0 8 -4 22 -9 30 -5 8 -9 11 -9 5z"/>
<path d="M3310 2611 c0 -5 -13 -28 -29 -52 -16 -24 -27 -47 -25 -51 3 -5 0 -7
-7 -6 -6 2 -13 -2 -16 -8 -2 -6 2 -11 9 -12 7 -1 25 -4 39 -7 16 -4 42 1 71
15 35 16 47 28 52 51 4 21 11 29 26 29 29 0 25 16 -7 28 -37 14 -113 22 -113
13z"/>
<path d="M1330 2558 c-24 -29 -37 -49 -28 -45 14 5 13 -4 -8 -59 -34 -91 -32
-185 6 -356 27 -120 56 -195 115 -298 7 -14 21 -56 29 -95 20 -89 81 -215 150
-314 30 -43 78 -118 106 -167 48 -82 89 -141 60 -85 -21 41 -111 301 -137 396
-27 98 -43 320 -26 364 7 18 4 38 -10 75 -14 35 -21 76 -21 128 0 42 -4 74 -9
71 -22 -13 -51 -95 -56 -158 l-6 -70 -25 65 c-31 82 -35 210 -7 253 14 22 14
25 2 21 -20 -8 -64 -83 -80 -137 l-13 -42 -7 38 c-13 67 -1 197 24 252 l22 49
-27 -24 c-15 -14 -35 -38 -46 -55 l-20 -30 5 72 c4 43 16 97 31 134 14 35 24
64 23 66 -2 1 -23 -21 -47 -49z"/>
<path d="M2317 2515 c46 -18 152 -67 235 -109 84 -41 144 -69 133 -60 -49 37
-411 205 -439 204 -6 -1 26 -16 71 -35z"/>
<path d="M2295 2451 c55 -21 135 -54 178 -74 42 -20 77 -33 77 -31 0 8 -177
89 -258 118 -112 40 -110 30 3 -13z"/>
<path d="M2501 2474 c0 -11 3 -14 6 -6 3 7 2 16 -1 19 -3 4 -6 -2 -5 -13z"/>
<path d="M2509 2335 c74 -30 136 -53 138 -51 5 4 -248 106 -262 106 -5 -1 50
-25 124 -55z"/>
<path d="M2120 2340 c-22 -5 -6 -6 40 -3 41 3 77 7 79 9 7 7 -83 2 -119 -6z"/>
<path d="M2258 2333 c7 -3 16 -2 19 1 4 3 -2 6 -13 5 -11 0 -14 -3 -6 -6z"/>
<path d="M3316 2331 c-3 -5 8 -11 26 -13 28 -5 29 -4 13 9 -22 15 -32 16 -39
4z"/>
<path d="M2710 2326 c0 -2 8 -10 18 -17 15 -13 16 -12 3 4 -13 16 -21 21 -21
13z"/>
<path d="M3340 2263 c8 -3 24 -10 35 -15 20 -9 20 -9 1 6 -11 9 -27 16 -35 15
-14 0 -14 -1 -1 -6z"/>
<path d="M2540 2250 c34 -15 133 -41 137 -36 5 4 -82 31 -132 41 -29 5 -29 5
-5 -5z"/>
<path d="M3295 2223 c22 -9 54 -26 70 -37 27 -18 28 -18 15 -2 -16 21 -86 56
-110 55 -8 0 3 -7 25 -16z"/>
<path d="M1260 2095 c-86 -206 -30 -384 191 -608 l90 -92 -55 111 c-118 240
-177 398 -201 544 -12 73 -12 74 -25 45z"/>
<path d="M2011 2049 c-1 -58 4 -75 44 -157 24 -51 46 -92 49 -92 2 0 -11 36
-30 81 -19 44 -40 115 -48 157 l-14 77 -1 -66z"/>
<path d="M3180 1767 c0 -9 -33 -51 -72 -93 -56 -59 -67 -75 -48 -69 45 14 80
35 94 58 18 27 39 107 32 115 -3 3 -6 -2 -6 -11z"/>
<path d="M3059 1532 c-109 -114 -141 -172 -146 -266 l-4 -71 23 65 c29 81 63
139 136 232 121 153 116 172 -9 40z"/>
<path d="M3349 1522 c15 -28 13 -130 -3 -167 -12 -28 -13 -25 -18 55 -2 47 -9
93 -15 104 -7 14 -9 -1 -5 -58 5 -86 -4 -96 -38 -40 -12 19 -24 33 -26 31 -2
-2 1 -32 7 -68 12 -76 -2 -204 -31 -283 l-19 -51 22 28 c35 42 146 239 157
278 20 68 4 163 -30 184 -9 6 -9 3 -1 -13z"/>
<path d="M2859 1383 c-72 -75 -142 -163 -131 -163 5 0 10 -17 10 -37 -1 -21 6
-60 13 -87 l15 -50 21 50 c26 62 37 100 58 197 11 50 25 88 42 107 38 45 23
36 -28 -17z"/>
<path d="M1737 1330 c9 -22 18 -38 20 -36 5 5 -24 76 -31 76 -2 0 3 -18 11
-40z"/>
<path d="M1777 1263 c-16 -16 85 -192 169 -293 29 -36 79 -92 110 -125 l56
-60 -51 65 c-89 114 -174 236 -227 329 -28 50 -54 88 -57 84z"/>
<path d="M2712 1185 c0 -16 2 -22 5 -12 2 9 2 23 0 30 -3 6 -5 -1 -5 -18z"/>
<path d="M2515 1127 c21 -26 40 -45 43 -42 4 3 -14 25 -38 48 l-43 42 38 -48z"/>
<path d="M3309 1138 c-7 -12 -27 -77 -44 -143 -18 -66 -35 -129 -38 -140 -4
-11 7 9 24 45 30 62 84 248 75 257 -2 3 -10 -6 -17 -19z"/>
<path d="M2672 1090 c0 -14 2 -19 5 -12 2 6 2 18 0 25 -3 6 -5 1 -5 -13z"/>
<path d="M2560 1066 c0 -2 8 -10 18 -17 15 -13 16 -12 3 4 -13 16 -21 21 -21
13z"/>
<path d="M2620 986 c0 -2 8 -10 18 -17 15 -13 16 -12 3 4 -13 16 -21 21 -21
13z"/>
</g>
</svg>